<svg xmlns="http://www.w3.org/2000/svg" width="1365.333" height="1365.333" preserveAspectRatio="xMidYMid meet" version="1.0" viewBox="0 0 1024 1024"><metadata>Created by potrace 1.14, written by Peter Selinger 2001-2017</metadata><g fill="#000" stroke="none"><path d="M5004 9571 c-72 -35 -109 -75 -169 -186 -6 -11 -64 -112 -129 -223 -64 -112 -125 -218 -135 -235 -10 -18 -32 -56 -50 -85 -17 -29 -31 -55 -31 -58 0 -3 -8 -18 -19 -32 -10 -15 -30 -47 -43 -72 -14 -25 -76 -133 -138 -240 -135 -233 -231 -399 -332 -575 -66 -115 -233 -403 -284 -492 -11 -18 -60 -103 -110 -190 -88 -154 -296 -513 -314 -543 -5 -8 -65 -112 -133 -230 -68 -118 -243 -422 -389 -675 -146 -253 -291 -505 -323 -560 -255 -442 -882 -1526 -896 -1550 -10 -16 -25 -43 -33 -60 -9 -16 -26 -48 -40 -70 -14 -22 -31 -51 -39 -65 -23 -43 -288 -502 -333 -578 -24 -40 -44 -77 -44 -82 0 -6 -4 -10 -10 -10 -5 0 -10 -4 -10 -9 0 -6 -38 -76 -85 -156 -47 -81 -85 -149 -85 -153 0 -3 -6 -13 -14 -21 -8 -9 -26 -38 -41 -66 -14 -27 -37 -68 -51 -90 -13 -22 -30 -51 -36 -65 -7 -14 -19 -36 -29 -50 -9 -14 -27 -45 -41 -70 -14 -25 -58 -101 -98 -170 -40 -69 -86 -150 -103 -180 -16 -30 -36 -62 -43 -71 -8 -8 -14 -18 -14 -22 0 -4 -180 -320 -209 -367 -42 -66 -131 -232 -140 -262 -14 -41 -8 -132 11 -176 24 -56 81 -115 137 -141 l56 -26 4905 1 4905 0 49 24 c127 62 187 193 149 325 -8 28 -21 57 -29 66 -8 8 -14 20 -14 25 0 5 -11 25 -23 44 -13 19 -35 55 -49 80 -33 59 -615 1069 -683 1185 -43 73 -485 838 -556 963 -65 113 -108 188 -209 362 -62 107 -124 215 -138 240 -14 25 -33 57 -43 72 -11 14 -19 28 -19 31 0 5 -163 289 -245 427 -18 30 -43 75 -57 100 -27 48 -293 508 -361 625 -23 39 -47 79 -53 90 -15 30 -353 614 -375 649 -10 17 -22 38 -26 46 -4 8 -37 67 -74 130 -253 437 -324 560 -345 597 -23 41 -154 269 -259 448 -28 50 -123 214 -210 365 -87 151 -171 298 -188 325 -17 28 -44 75 -60 105 -17 30 -38 66 -47 80 -10 14 -21 35 -24 48 -4 12 -12 22 -17 22 -5 0 -9 4 -9 10 0 5 -14 33 -31 62 -40 68 -399 690 -429 743 -12 22 -31 52 -41 67 -11 14 -19 29 -19 32 0 4 -67 123 -99 176 -5 8 -40 68 -77 133 -37 65 -82 133 -99 151 -80 85 -205 108 -311 57z" transform="translate(0.000000,1024.000000) scale(0.100000,-0.100000)"/></g></svg>