<?xml version="1.0" standalone="no"?>
<!DOCTYPE svg PUBLIC "-//W3C//DTD SVG 20010904//EN"
 "http://www.w3.org/TR/2001/REC-SVG-20010904/DTD/svg10.dtd">
<svg version="1.0" xmlns="http://www.w3.org/2000/svg"
 width="512.000000pt" height="512.000000pt" viewBox="0 0 512.000000 512.000000"
 preserveAspectRatio="xMidYMid meet">
<metadata>
Created by potrace 1.14, written by Peter Selinger 2001-2017
</metadata>
<g transform="translate(0.000000,512.000000) scale(0.100000,-0.100000)"
fill="#000000" stroke="none">
<path d="M2494 4781 c-17 -10 -40 -32 -51 -48 -17 -23 -2313 -3997 -2412
-4174 -18 -32 -31 -70 -31 -90 0 -43 31 -94 72 -119 33 -20 56 -20 2483 -20
2313 0 2452 1 2485 18 51 25 83 77 77 128 -3 31 -278 515 -1207 2125 -662
1146 -1214 2101 -1227 2122 -45 73 -125 97 -189 58z m1154 -2290 c595 -1027
1082 -1871 1082 -1874 0 -4 -976 -7 -2170 -7 -1194 0 -2170 3 -2170 7 0 9
2164 3742 2170 3742 3 0 492 -840 1088 -1868z"/>
<path d="M1949 2933 c-42 -22 -61 -40 -85 -80 -36 -60 -63 -192 -67 -323 l-2
-85 33 -3 c26 -3 32 0 32 16 0 39 32 124 58 153 37 42 101 50 159 21 121 -62
281 -332 397 -670 94 -276 97 -341 18 -534 -67 -166 -94 -294 -96 -463 -1
-120 1 -134 24 -179 34 -68 68 -91 135 -91 65 0 99 22 135 86 21 37 25 60 28
150 5 142 -12 315 -48 489 -16 80 -30 158 -30 174 0 34 57 143 158 303 100
158 280 462 340 574 135 251 154 382 66 459 -72 63 -198 26 -250 -72 -17 -32
-37 -128 -54 -253 -30 -223 -102 -455 -235 -757 -26 -60 -50 -106 -54 -103 -4
2 -13 30 -20 62 -155 712 -290 1041 -462 1129 -63 31 -112 31 -180 -3z"/>
</g>
</svg>
