<?xml version="1.0" standalone="no"?>
<!DOCTYPE svg PUBLIC "-//W3C//DTD SVG 20010904//EN"
 "http://www.w3.org/TR/2001/REC-SVG-20010904/DTD/svg10.dtd">
<svg version="1.0" xmlns="http://www.w3.org/2000/svg"
 width="1024.000000pt" height="1024.000000pt" viewBox="0 0 1024.000000 1024.000000"
 preserveAspectRatio="xMidYMid meet">
<metadata>
Created by potrace 1.14, written by Peter Selinger 2001-2017
</metadata>
<g transform="translate(0.000000,1024.000000) scale(0.100000,-0.100000)"
fill="#000000" stroke="none">
<path d="M5039 9587 c-56 -21 -107 -56 -133 -90 -48 -65 -4880 -8444 -4893
-8487 -38 -121 25 -258 145 -317 l57 -28 4900 0 4900 0 53 24 c63 28 133 103
150 159 15 49 16 141 1 179 -23 61 -4876 8457 -4907 8489 -18 19 -51 43 -73
54 -51 27 -152 35 -200 17z m149 -957 c34 -60 62 -114 62 -119 0 -5 4 -11 8
-13 10 -4 282 -473 282 -486 0 -6 4 -12 8 -14 10 -4 392 -663 392 -676 0 -6 4
-12 8 -14 10 -4 282 -473 282 -486 0 -6 4 -12 8 -14 10 -4 102 -164 102 -177
0 -5 4 -11 8 -13 10 -4 282 -473 282 -486 0 -6 4 -12 8 -14 10 -4 282 -473
282 -486 0 -6 4 -12 8 -14 10 -4 102 -164 102 -177 0 -5 4 -11 8 -13 10 -4
282 -473 282 -486 0 -6 4 -12 8 -14 10 -4 392 -663 392 -676 0 -6 4 -12 8 -14
10 -4 282 -473 282 -486 0 -6 4 -12 8 -14 10 -4 392 -663 392 -676 0 -6 4 -12
8 -14 10 -4 282 -473 282 -486 0 -6 4 -12 8 -14 10 -4 102 -164 102 -177 0 -5
4 -11 8 -13 10 -4 282 -473 282 -486 0 -6 4 -12 8 -14 4 -1 46 -68 92 -148 46
-80 130 -225 186 -323 l103 -177 -4369 0 -4369 0 42 73 c22 39 45 74 49 75 4
2 8 8 8 14 0 13 272 482 282 486 4 2 8 8 8 14 0 13 382 672 392 676 4 2 8 8 8
14 0 13 272 482 282 486 4 2 8 8 8 14 0 13 382 672 392 676 4 2 8 8 8 14 0 13
272 482 282 486 4 2 8 8 8 13 0 13 92 173 102 177 4 2 8 8 8 14 0 13 272 482
282 486 4 2 8 8 8 14 0 13 382 672 392 676 4 2 8 8 8 14 0 13 272 482 282 486
4 2 8 8 8 14 0 13 382 672 392 676 4 2 8 8 8 14 0 13 272 482 282 486 4 2 8 8
8 13 0 13 92 173 102 177 4 2 8 8 8 14 0 13 272 482 282 486 4 2 8 8 8 14 0
13 272 482 282 486 4 2 8 8 8 13 0 11 90 171 101 179 3 3 9 15 13 28 4 12 10
22 14 22 4 0 35 -50 70 -110z"/>
<path d="M3987 5899 c-103 -24 -209 -110 -265 -214 -36 -66 -74 -207 -96 -360
-23 -152 -39 -361 -32 -400 7 -35 7 -35 60 -35 l54 0 6 48 c35 246 137 372
301 372 161 0 351 -168 530 -470 138 -233 306 -592 376 -800 10 -30 30 -89 44
-130 72 -209 139 -478 151 -609 9 -98 -30 -234 -148 -511 -107 -252 -156 -500
-174 -878 -7 -158 6 -241 54 -344 58 -123 130 -172 252 -172 166 0 265 92 316
294 22 85 23 237 4 520 -17 252 -35 378 -79 577 -22 99 -48 238 -57 308 -15
120 -15 130 2 173 32 85 108 218 344 597 258 416 276 446 514 860 250 433 366
716 366 889 0 119 -75 247 -165 282 -65 24 -193 16 -259 -17 -92 -45 -158
-126 -198 -238 -20 -57 -53 -242 -88 -496 -37 -267 -130 -612 -259 -960 -33
-89 -46 -122 -155 -382 -75 -180 -153 -347 -163 -350 -12 -4 -15 4 -53 172
-12 55 -32 145 -45 200 -13 55 -40 170 -60 255 -126 542 -204 796 -354 1155
-138 332 -255 503 -415 607 -97 63 -202 82 -309 57z"/>
</g>
</svg>
