<svg id="svg" version="1.1" xmlns="http://www.w3.org/2000/svg" xmlns:xlink="http://www.w3.org/1999/xlink" width="400" height="400" viewBox="0, 0, 400,400"><g id="svgg"><path id="path0" d="M197.000 24.400 C 196.864 24.620,196.393 24.800,195.952 24.800 C 195.002 24.800,191.200 27.204,191.200 27.805 C 191.200 28.035,190.840 28.483,190.400 28.800 C 189.960 29.117,189.600 29.697,189.600 30.088 C 189.600 30.480,189.420 30.800,189.200 30.800 C 188.980 30.800,188.800 31.070,188.800 31.400 C 188.800 31.730,188.620 32.000,188.400 32.000 C 188.180 32.000,188.000 32.270,188.000 32.600 C 188.000 32.930,187.820 33.200,187.600 33.200 C 187.380 33.200,187.200 33.560,187.200 34.000 C 187.200 34.440,187.020 34.800,186.800 34.800 C 186.580 34.800,186.400 35.078,186.400 35.417 C 186.400 35.756,186.040 36.420,185.600 36.892 C 185.160 37.364,184.800 37.987,184.800 38.275 C 184.800 38.564,184.620 38.800,184.400 38.800 C 184.180 38.800,184.000 39.160,184.000 39.600 C 184.000 40.040,183.820 40.400,183.600 40.400 C 183.380 40.400,183.200 40.593,183.200 40.828 C 183.200 41.063,182.660 42.041,182.000 43.000 C 181.340 43.959,180.800 44.937,180.800 45.172 C 180.800 45.407,180.641 45.600,180.447 45.600 C 180.252 45.600,179.993 45.915,179.870 46.300 C 179.748 46.685,178.979 48.170,178.163 49.600 C 175.543 54.188,174.800 55.631,174.800 56.133 C 174.800 56.403,174.440 56.883,174.000 57.200 C 173.560 57.517,173.200 58.097,173.200 58.488 C 173.200 58.880,173.020 59.200,172.800 59.200 C 172.580 59.200,172.400 59.470,172.400 59.800 C 172.400 60.130,172.220 60.400,172.000 60.400 C 171.780 60.400,171.600 60.678,171.600 61.017 C 171.600 61.356,171.240 62.020,170.800 62.492 C 170.360 62.964,170.000 63.587,170.000 63.875 C 170.000 64.164,169.820 64.400,169.600 64.400 C 169.380 64.400,169.200 64.760,169.200 65.200 C 169.200 65.640,169.020 66.000,168.800 66.000 C 168.580 66.000,168.400 66.236,168.400 66.525 C 168.400 66.813,168.040 67.436,167.600 67.908 C 167.160 68.380,166.800 69.044,166.800 69.383 C 166.800 69.722,166.620 70.000,166.400 70.000 C 166.180 70.000,166.000 70.360,166.000 70.800 C 166.000 71.240,165.842 71.600,165.649 71.600 C 165.455 71.600,165.073 72.140,164.800 72.800 C 164.527 73.460,164.145 74.000,163.951 74.000 C 163.758 74.000,163.600 74.360,163.600 74.800 C 163.600 75.240,163.420 75.600,163.200 75.600 C 162.980 75.600,162.800 75.793,162.800 76.028 C 162.800 76.263,162.293 77.208,161.673 78.128 C 161.054 79.048,160.239 80.467,159.863 81.283 C 159.486 82.099,159.003 82.874,158.789 83.007 C 158.575 83.139,158.400 83.597,158.400 84.024 C 158.400 84.451,158.220 84.800,158.000 84.800 C 157.780 84.800,157.600 85.078,157.600 85.417 C 157.600 85.756,157.240 86.420,156.800 86.892 C 156.360 87.364,156.000 87.987,156.000 88.275 C 156.000 88.564,155.820 88.800,155.600 88.800 C 155.380 88.800,155.200 89.160,155.200 89.600 C 155.200 90.040,155.020 90.400,154.800 90.400 C 154.580 90.400,154.400 90.678,154.400 91.017 C 154.400 91.356,154.040 92.020,153.600 92.492 C 153.160 92.964,152.576 93.856,152.303 94.475 C 152.029 95.094,151.669 95.600,151.502 95.600 C 151.336 95.600,151.200 95.878,151.200 96.217 C 151.200 96.556,150.840 97.220,150.400 97.692 C 149.960 98.164,149.600 98.787,149.600 99.075 C 149.600 99.364,149.420 99.600,149.200 99.600 C 148.980 99.600,148.800 99.945,148.800 100.367 C 148.800 100.788,148.665 101.193,148.500 101.267 C 148.124 101.434,146.825 103.564,146.529 104.500 C 146.407 104.885,146.148 105.200,145.953 105.200 C 145.759 105.200,145.600 105.545,145.600 105.967 C 145.600 106.388,145.452 106.793,145.271 106.867 C 144.885 107.023,141.200 113.519,141.200 114.043 C 141.200 114.239,141.020 114.400,140.800 114.400 C 140.580 114.400,140.400 114.760,140.400 115.200 C 140.400 115.640,140.220 116.000,140.000 116.000 C 139.780 116.000,139.600 116.236,139.600 116.525 C 139.600 116.813,139.240 117.436,138.800 117.908 C 138.360 118.380,138.000 119.044,138.000 119.383 C 138.000 119.722,137.820 120.000,137.600 120.000 C 137.380 120.000,137.200 120.278,137.200 120.617 C 137.200 120.956,136.840 121.620,136.400 122.092 C 135.960 122.564,135.600 123.187,135.600 123.475 C 135.600 123.764,135.420 124.000,135.200 124.000 C 134.980 124.000,134.800 124.360,134.800 124.800 C 134.800 125.240,134.620 125.600,134.400 125.600 C 134.180 125.600,134.000 125.793,134.000 126.028 C 134.000 126.263,133.460 127.241,132.800 128.200 C 132.140 129.159,131.600 130.137,131.600 130.372 C 131.600 130.607,131.420 130.800,131.200 130.800 C 130.980 130.800,130.800 131.160,130.800 131.600 C 130.800 132.040,130.655 132.400,130.479 132.400 C 130.302 132.400,129.717 133.297,129.179 134.394 C 128.640 135.490,128.065 136.390,127.900 136.394 C 127.735 136.397,127.600 136.760,127.600 137.200 C 127.600 137.640,127.447 138.000,127.261 138.000 C 127.074 138.000,126.588 138.765,126.180 139.700 C 125.772 140.635,124.935 142.152,124.319 143.072 C 123.704 143.992,123.200 144.937,123.200 145.172 C 123.200 145.407,123.020 145.600,122.800 145.600 C 122.580 145.600,122.400 145.960,122.400 146.400 C 122.400 146.840,122.220 147.200,122.000 147.200 C 121.780 147.200,121.600 147.470,121.600 147.800 C 121.600 148.130,121.420 148.400,121.200 148.400 C 120.980 148.400,120.800 148.670,120.800 149.000 C 120.800 149.330,120.620 149.600,120.400 149.600 C 120.180 149.600,120.000 149.960,120.000 150.400 C 120.000 150.840,119.820 151.200,119.600 151.200 C 119.380 151.200,119.200 151.478,119.200 151.817 C 119.200 152.156,118.840 152.820,118.400 153.292 C 117.960 153.764,117.600 154.387,117.600 154.675 C 117.600 154.964,117.420 155.200,117.200 155.200 C 116.980 155.200,116.800 155.560,116.800 156.000 C 116.800 156.440,116.620 156.800,116.400 156.800 C 116.180 156.800,116.000 157.036,116.000 157.325 C 116.000 157.613,115.685 158.198,115.300 158.625 C 114.915 159.051,114.330 159.938,114.000 160.595 C 113.670 161.252,112.725 162.914,111.900 164.288 C 111.075 165.662,110.400 166.882,110.400 167.001 C 110.400 167.119,109.950 167.929,109.400 168.800 C 108.850 169.671,108.400 170.658,108.400 170.992 C 108.400 171.326,108.220 171.600,108.000 171.600 C 107.780 171.600,107.600 171.920,107.600 172.312 C 107.600 172.703,107.240 173.283,106.800 173.600 C 106.360 173.917,106.000 174.497,106.000 174.888 C 106.000 175.280,105.820 175.600,105.600 175.600 C 105.380 175.600,105.200 175.870,105.200 176.200 C 105.200 176.530,105.020 176.800,104.800 176.800 C 104.580 176.800,104.400 177.078,104.400 177.417 C 104.400 177.756,104.040 178.420,103.600 178.892 C 103.160 179.364,102.800 179.987,102.800 180.275 C 102.800 180.564,102.620 180.800,102.400 180.800 C 102.180 180.800,102.000 181.160,102.000 181.600 C 102.000 182.040,101.820 182.400,101.600 182.400 C 101.380 182.400,101.200 182.636,101.200 182.925 C 101.200 183.213,100.840 183.836,100.400 184.308 C 99.960 184.780,99.600 185.444,99.600 185.783 C 99.600 186.122,99.420 186.400,99.200 186.400 C 98.980 186.400,98.800 186.678,98.800 187.017 C 98.800 187.356,98.440 188.020,98.000 188.492 C 97.560 188.964,97.200 189.587,97.200 189.875 C 97.200 190.164,97.020 190.400,96.800 190.400 C 96.580 190.400,96.400 190.760,96.400 191.200 C 96.400 191.640,96.220 192.000,96.000 192.000 C 95.780 192.000,95.600 192.157,95.600 192.349 C 95.600 192.541,94.790 194.046,93.800 195.693 C 92.810 197.341,92.000 198.893,92.000 199.144 C 92.000 199.395,91.820 199.600,91.600 199.600 C 91.380 199.600,91.200 199.960,91.200 200.400 C 91.200 200.840,91.020 201.200,90.800 201.200 C 90.580 201.200,90.400 201.478,90.400 201.817 C 90.400 202.156,90.040 202.820,89.600 203.292 C 89.160 203.764,88.800 204.387,88.800 204.675 C 88.800 204.964,88.620 205.200,88.400 205.200 C 88.180 205.200,88.000 205.560,88.000 206.000 C 88.000 206.440,87.820 206.800,87.600 206.800 C 87.380 206.800,87.200 207.094,87.200 207.453 C 87.200 207.812,86.871 208.397,86.470 208.753 C 86.068 209.109,85.484 209.985,85.172 210.700 C 84.860 211.415,84.469 212.000,84.302 212.000 C 84.136 212.000,84.000 212.278,84.000 212.617 C 84.000 212.956,83.640 213.620,83.200 214.092 C 82.760 214.564,82.400 215.187,82.400 215.475 C 82.400 215.764,82.220 216.000,82.000 216.000 C 81.780 216.000,81.600 216.345,81.600 216.767 C 81.600 217.188,81.465 217.593,81.300 217.667 C 80.924 217.834,79.625 219.964,79.329 220.900 C 79.207 221.285,78.948 221.600,78.753 221.600 C 78.559 221.600,78.400 221.960,78.400 222.400 C 78.400 222.840,78.265 223.200,78.100 223.201 C 77.935 223.201,77.080 224.596,76.200 226.301 C 75.320 228.005,74.465 229.460,74.300 229.533 C 74.135 229.607,74.000 229.922,74.000 230.233 C 74.000 230.545,73.820 230.800,73.600 230.800 C 73.380 230.800,73.200 231.160,73.200 231.600 C 73.200 232.040,73.020 232.400,72.800 232.400 C 72.580 232.400,72.400 232.636,72.400 232.925 C 72.400 233.213,72.040 233.836,71.600 234.308 C 71.160 234.780,70.800 235.444,70.800 235.783 C 70.800 236.122,70.620 236.400,70.400 236.400 C 70.180 236.400,70.000 236.678,70.000 237.017 C 70.000 237.356,69.640 238.020,69.200 238.492 C 68.760 238.964,68.400 239.587,68.400 239.875 C 68.400 240.164,68.220 240.400,68.000 240.400 C 67.780 240.400,67.600 240.760,67.600 241.200 C 67.600 241.640,67.420 242.000,67.200 242.000 C 66.980 242.000,66.800 242.193,66.800 242.428 C 66.800 242.663,66.260 243.641,65.600 244.600 C 64.940 245.559,64.400 246.537,64.400 246.772 C 64.400 247.007,64.220 247.200,64.000 247.200 C 63.780 247.200,63.600 247.560,63.600 248.000 C 63.600 248.440,63.455 248.800,63.279 248.800 C 63.102 248.800,62.517 249.697,61.979 250.794 C 61.440 251.890,60.865 252.790,60.700 252.794 C 60.535 252.797,60.400 253.160,60.400 253.600 C 60.400 254.040,60.253 254.400,60.074 254.400 C 59.726 254.400,58.400 256.958,58.400 257.630 C 58.400 257.852,58.040 258.420,57.600 258.892 C 57.160 259.364,56.576 260.256,56.303 260.875 C 56.029 261.494,55.669 262.000,55.502 262.000 C 55.336 262.000,55.200 262.278,55.200 262.617 C 55.200 262.956,54.840 263.620,54.400 264.092 C 53.960 264.564,53.600 265.187,53.600 265.475 C 53.600 265.764,53.420 266.000,53.200 266.000 C 52.980 266.000,52.800 266.345,52.800 266.767 C 52.800 267.188,52.665 267.593,52.500 267.667 C 52.124 267.834,50.825 269.964,50.529 270.900 C 50.407 271.285,50.148 271.600,49.953 271.600 C 49.759 271.600,49.600 271.960,49.600 272.400 C 49.600 272.840,49.442 273.200,49.249 273.200 C 49.055 273.200,48.673 273.740,48.400 274.400 C 48.127 275.060,47.789 275.600,47.649 275.600 C 47.510 275.600,47.146 276.164,46.841 276.853 C 46.536 277.542,45.592 279.248,44.743 280.645 C 43.894 282.043,43.200 283.347,43.200 283.544 C 43.200 283.741,42.930 284.126,42.600 284.400 C 42.270 284.674,42.000 285.236,42.000 285.649 C 42.000 286.062,41.820 286.400,41.600 286.400 C 41.380 286.400,41.200 286.760,41.200 287.200 C 41.200 287.640,41.020 288.000,40.800 288.000 C 40.580 288.000,40.400 288.236,40.400 288.525 C 40.400 288.813,40.040 289.436,39.600 289.908 C 39.160 290.380,38.800 291.044,38.800 291.383 C 38.800 291.722,38.620 292.000,38.400 292.000 C 38.180 292.000,38.000 292.255,38.000 292.567 C 38.000 292.878,37.865 293.193,37.700 293.267 C 37.324 293.434,36.025 295.564,35.729 296.500 C 35.607 296.885,35.348 297.200,35.153 297.200 C 34.959 297.200,34.800 297.560,34.800 298.000 C 34.800 298.440,34.620 298.800,34.400 298.800 C 34.180 298.800,34.000 299.070,34.000 299.400 C 34.000 299.730,33.820 300.000,33.600 300.000 C 33.380 300.000,33.200 300.270,33.200 300.600 C 33.200 300.930,33.020 301.200,32.800 301.200 C 32.580 301.200,32.400 301.560,32.400 302.000 C 32.400 302.440,32.220 302.800,32.000 302.800 C 31.780 302.800,31.600 303.078,31.600 303.417 C 31.600 303.756,31.240 304.420,30.800 304.892 C 30.360 305.364,30.000 305.987,30.000 306.275 C 30.000 306.564,29.820 306.800,29.600 306.800 C 29.380 306.800,29.200 307.160,29.200 307.600 C 29.200 308.040,29.020 308.400,28.800 308.400 C 28.580 308.400,28.400 308.597,28.400 308.838 C 28.400 309.079,28.068 309.754,27.663 310.338 C 27.258 310.922,26.403 312.390,25.763 313.600 C 25.123 314.810,24.465 315.860,24.300 315.933 C 24.135 316.007,24.000 316.412,24.000 316.833 C 24.000 317.255,23.820 317.600,23.600 317.600 C 23.380 317.600,23.200 317.878,23.200 318.217 C 23.200 318.556,22.840 319.220,22.400 319.692 C 21.960 320.164,21.600 320.787,21.600 321.075 C 21.600 321.364,21.420 321.600,21.200 321.600 C 20.980 321.600,20.800 321.960,20.800 322.400 C 20.800 322.840,20.620 323.200,20.400 323.200 C 20.180 323.200,20.000 323.494,20.000 323.853 C 20.000 324.212,19.671 324.797,19.270 325.153 C 18.868 325.509,18.284 326.385,17.972 327.100 C 17.660 327.815,17.269 328.400,17.102 328.400 C 16.936 328.400,16.800 328.678,16.800 329.017 C 16.800 329.356,16.440 330.020,16.000 330.492 C 15.560 330.964,15.200 331.587,15.200 331.875 C 15.200 332.164,15.020 332.400,14.800 332.400 C 14.580 332.400,14.400 332.745,14.400 333.167 C 14.400 333.588,14.265 333.993,14.100 334.067 C 13.724 334.234,12.425 336.364,12.129 337.300 C 12.007 337.685,11.748 338.000,11.553 338.000 C 11.359 338.000,11.200 338.345,11.200 338.767 C 11.200 339.188,11.051 339.593,10.869 339.667 C 10.579 339.784,8.291 343.745,7.040 346.297 C 6.798 346.790,6.465 347.195,6.300 347.197 C 6.135 347.199,6.000 347.560,6.000 348.000 C 6.000 348.440,5.820 348.800,5.600 348.800 C 5.380 348.800,5.200 349.070,5.200 349.400 C 5.200 349.730,5.020 350.000,4.800 350.000 C 4.580 350.000,4.400 350.270,4.400 350.600 C 4.400 350.930,4.220 351.200,4.000 351.200 C 3.780 351.200,3.600 351.560,3.600 352.000 C 3.600 352.440,3.420 352.800,3.200 352.800 C 2.980 352.800,2.800 353.160,2.800 353.600 C 2.800 354.040,2.650 354.400,2.468 354.400 C 2.285 354.400,1.880 354.895,1.568 355.500 C 1.256 356.105,0.821 356.728,0.601 356.885 C 0.363 357.055,0.200 359.669,0.200 363.314 L 0.200 369.457 2.295 371.498 C 3.650 372.818,5.175 373.833,6.610 374.370 L 8.830 375.200 199.715 375.196 C 401.277 375.191,392.084 375.268,395.271 373.562 C 396.549 372.878,399.202 370.047,399.637 368.903 C 400.739 366.005,399.722 356.000,398.326 356.000 C 398.147 356.000,398.000 355.640,398.000 355.200 C 398.000 354.760,397.820 354.400,397.600 354.400 C 397.380 354.400,397.200 354.122,397.200 353.783 C 397.200 353.444,396.840 352.780,396.400 352.308 C 395.960 351.836,395.600 351.213,395.600 350.925 C 395.600 350.636,395.420 350.400,395.200 350.400 C 394.980 350.400,394.800 350.040,394.800 349.600 C 394.800 349.160,394.620 348.800,394.400 348.800 C 394.180 348.800,394.000 348.564,394.000 348.275 C 394.000 347.987,393.640 347.364,393.200 346.892 C 392.760 346.420,392.400 345.756,392.400 345.417 C 392.400 345.078,392.265 344.799,392.100 344.799 C 391.935 344.798,391.467 343.988,391.060 342.999 C 390.654 342.009,390.159 341.200,389.960 341.200 C 389.762 341.200,389.600 340.855,389.600 340.433 C 389.600 340.012,389.465 339.607,389.300 339.533 C 388.924 339.366,387.625 337.236,387.329 336.300 C 387.207 335.915,386.948 335.600,386.753 335.600 C 386.559 335.600,386.400 335.240,386.400 334.800 C 386.400 334.360,386.220 334.000,386.000 334.000 C 385.780 334.000,385.600 333.764,385.600 333.475 C 385.600 333.187,385.240 332.564,384.800 332.092 C 384.360 331.620,384.000 330.956,384.000 330.617 C 384.000 330.278,383.864 330.000,383.698 330.000 C 383.531 330.000,383.136 329.415,382.820 328.700 C 382.503 327.985,381.920 327.051,381.522 326.625 C 381.125 326.198,380.800 325.613,380.800 325.325 C 380.800 325.036,380.620 324.800,380.400 324.800 C 380.180 324.800,380.000 324.440,380.000 324.000 C 380.000 323.560,379.820 323.200,379.600 323.200 C 379.380 323.200,379.200 322.964,379.200 322.675 C 379.200 322.387,378.840 321.764,378.400 321.292 C 377.960 320.820,377.600 320.156,377.600 319.817 C 377.600 319.478,377.420 319.200,377.200 319.200 C 376.980 319.200,376.800 318.840,376.800 318.400 C 376.800 317.960,376.620 317.600,376.400 317.600 C 376.180 317.600,376.000 317.345,376.000 317.033 C 376.000 316.722,375.865 316.407,375.700 316.333 C 375.428 316.212,374.723 314.964,372.235 310.200 C 371.776 309.320,371.187 308.374,370.926 308.098 C 370.666 307.821,370.338 307.236,370.199 306.798 C 370.060 306.359,369.778 306.000,369.573 306.000 C 369.368 306.000,369.200 305.640,369.200 305.200 C 369.200 304.760,369.020 304.400,368.800 304.400 C 368.580 304.400,368.400 304.122,368.400 303.783 C 368.400 303.444,368.040 302.780,367.600 302.308 C 367.160 301.836,366.800 301.213,366.800 300.925 C 366.800 300.636,366.620 300.400,366.400 300.400 C 366.180 300.400,366.000 300.040,366.000 299.600 C 366.000 299.160,365.820 298.800,365.600 298.800 C 365.380 298.800,365.200 298.564,365.200 298.275 C 365.200 297.987,364.840 297.364,364.400 296.892 C 363.960 296.420,363.600 295.756,363.600 295.417 C 363.600 295.078,363.464 294.800,363.298 294.800 C 363.131 294.800,362.740 294.215,362.428 293.500 C 362.116 292.785,361.532 291.909,361.130 291.553 C 360.729 291.197,360.400 290.612,360.400 290.253 C 360.400 289.894,360.220 289.600,360.000 289.600 C 359.780 289.600,359.600 289.240,359.600 288.800 C 359.600 288.360,359.420 288.000,359.200 288.000 C 358.980 288.000,358.800 287.851,358.800 287.669 C 358.800 287.126,354.117 278.661,352.753 276.738 C 352.339 276.154,352.000 275.479,352.000 275.238 C 352.000 274.997,351.820 274.800,351.600 274.800 C 351.380 274.800,351.200 274.440,351.200 274.000 C 351.200 273.560,351.020 273.200,350.800 273.200 C 350.580 273.200,350.400 272.964,350.400 272.675 C 350.400 272.387,350.040 271.764,349.600 271.292 C 349.160 270.820,348.800 270.156,348.800 269.817 C 348.800 269.478,348.620 269.200,348.400 269.200 C 348.180 269.200,348.000 268.840,348.000 268.400 C 348.000 267.960,347.820 267.600,347.600 267.600 C 347.380 267.600,347.200 267.364,347.200 267.075 C 347.200 266.787,346.840 266.164,346.400 265.692 C 345.960 265.220,345.600 264.571,345.600 264.250 C 345.600 263.929,345.465 263.607,345.300 263.533 C 344.924 263.366,343.625 261.236,343.329 260.300 C 343.207 259.915,342.948 259.600,342.753 259.600 C 342.559 259.600,342.400 259.330,342.400 259.000 C 342.400 258.670,342.220 258.400,342.000 258.400 C 341.780 258.400,341.600 258.051,341.600 257.624 C 341.600 257.197,341.440 256.748,341.244 256.627 C 341.048 256.506,340.201 255.055,339.362 253.403 C 338.524 251.751,337.694 250.400,337.519 250.400 C 337.343 250.400,337.200 250.040,337.200 249.600 C 337.200 249.160,337.041 248.800,336.847 248.800 C 336.652 248.800,336.393 248.485,336.271 248.100 C 336.034 247.353,334.754 245.133,334.368 244.800 C 334.240 244.690,333.881 244.015,333.570 243.300 C 333.259 242.585,332.869 242.000,332.702 242.000 C 332.536 242.000,332.400 241.764,332.400 241.475 C 332.400 241.187,332.040 240.564,331.600 240.092 C 331.160 239.620,330.800 238.956,330.800 238.617 C 330.800 238.278,330.620 238.000,330.400 238.000 C 330.180 238.000,330.000 237.722,330.000 237.383 C 330.000 237.044,329.640 236.380,329.200 235.908 C 328.760 235.436,328.400 234.813,328.400 234.525 C 328.400 234.236,328.220 234.000,328.000 234.000 C 327.780 234.000,327.600 233.640,327.600 233.200 C 327.600 232.760,327.420 232.400,327.200 232.400 C 326.980 232.400,326.800 232.164,326.800 231.875 C 326.800 231.587,326.440 230.964,326.000 230.492 C 325.560 230.020,325.200 229.469,325.200 229.267 C 325.200 228.745,323.105 225.027,322.720 224.867 C 322.544 224.793,322.400 224.403,322.400 224.000 C 322.400 223.597,322.265 223.207,322.100 223.133 C 321.724 222.966,320.425 220.836,320.129 219.900 C 320.007 219.515,319.748 219.200,319.553 219.200 C 319.359 219.200,319.200 218.840,319.200 218.400 C 319.200 217.960,319.020 217.600,318.800 217.600 C 318.580 217.600,318.400 217.364,318.400 217.075 C 318.400 216.787,318.040 216.164,317.600 215.692 C 317.160 215.220,316.800 214.571,316.800 214.250 C 316.800 213.929,316.665 213.607,316.500 213.533 C 316.124 213.366,314.825 211.236,314.529 210.300 C 314.407 209.915,314.148 209.600,313.953 209.600 C 313.759 209.600,313.600 209.330,313.600 209.000 C 313.600 208.670,313.420 208.400,313.200 208.400 C 312.980 208.400,312.800 208.040,312.800 207.600 C 312.800 207.160,312.620 206.800,312.400 206.800 C 312.180 206.800,312.000 206.564,312.000 206.275 C 312.000 205.987,311.640 205.364,311.200 204.892 C 310.760 204.420,310.400 203.756,310.400 203.417 C 310.400 203.078,310.220 202.800,310.000 202.800 C 309.780 202.800,309.600 202.455,309.600 202.033 C 309.600 201.612,309.435 201.207,309.234 201.133 C 309.033 201.060,308.255 199.830,307.505 198.400 C 304.948 193.527,304.200 192.200,303.726 191.698 C 303.466 191.421,303.138 190.836,302.999 190.398 C 302.860 189.959,302.578 189.600,302.373 189.600 C 302.168 189.600,302.000 189.240,302.000 188.800 C 302.000 188.360,301.820 188.000,301.600 188.000 C 301.380 188.000,301.200 187.722,301.200 187.383 C 301.200 187.044,300.840 186.380,300.400 185.908 C 299.960 185.436,299.600 184.813,299.600 184.525 C 299.600 184.236,299.420 184.000,299.200 184.000 C 298.980 184.000,298.800 183.640,298.800 183.200 C 298.800 182.760,298.620 182.400,298.400 182.400 C 298.180 182.400,298.000 182.164,298.000 181.875 C 298.000 181.587,297.640 180.964,297.200 180.492 C 296.760 180.020,296.400 179.356,296.400 179.017 C 296.400 178.678,296.264 178.400,296.098 178.400 C 295.931 178.400,295.540 177.815,295.228 177.100 C 294.916 176.385,294.332 175.509,293.930 175.153 C 293.529 174.797,293.200 174.212,293.200 173.853 C 293.200 173.494,293.020 173.200,292.800 173.200 C 292.580 173.200,292.400 172.855,292.400 172.433 C 292.400 172.012,292.265 171.607,292.100 171.533 C 291.840 171.418,289.509 167.184,288.228 164.503 C 287.993 164.010,287.665 163.605,287.500 163.603 C 287.335 163.601,287.200 163.407,287.200 163.172 C 287.200 162.937,286.660 161.959,286.000 161.000 C 285.340 160.041,284.800 159.063,284.800 158.828 C 284.800 158.593,284.620 158.400,284.400 158.400 C 284.180 158.400,284.000 158.040,284.000 157.600 C 284.000 157.160,283.820 156.800,283.600 156.800 C 283.380 156.800,283.200 156.564,283.200 156.275 C 283.200 155.987,282.840 155.364,282.400 154.892 C 281.960 154.420,281.600 153.756,281.600 153.417 C 281.600 153.078,281.420 152.800,281.200 152.800 C 280.980 152.800,280.800 152.522,280.800 152.183 C 280.800 151.844,280.440 151.180,280.000 150.708 C 279.560 150.236,279.200 149.613,279.200 149.325 C 279.200 149.036,279.020 148.800,278.800 148.800 C 278.580 148.800,278.400 148.440,278.400 148.000 C 278.400 147.560,278.241 147.200,278.047 147.200 C 277.852 147.200,277.593 146.885,277.471 146.500 C 277.241 145.774,275.966 143.550,275.579 143.200 C 275.458 143.090,275.026 142.280,274.620 141.400 C 274.214 140.520,273.772 139.710,273.638 139.600 C 273.504 139.490,272.767 138.185,272.001 136.700 C 271.235 135.215,270.472 134.000,270.304 134.000 C 270.137 134.000,270.000 133.640,270.000 133.200 C 270.000 132.760,269.841 132.400,269.647 132.400 C 269.452 132.400,269.193 132.085,269.071 131.700 C 268.854 131.013,267.595 128.794,267.199 128.400 C 267.089 128.290,266.729 127.660,266.399 127.000 C 266.070 126.340,265.485 125.451,265.100 125.025 C 264.715 124.598,264.400 124.013,264.400 123.725 C 264.400 123.436,264.220 123.200,264.000 123.200 C 263.780 123.200,263.600 122.840,263.600 122.400 C 263.600 121.960,263.420 121.600,263.200 121.600 C 262.980 121.600,262.800 121.364,262.800 121.075 C 262.800 120.787,262.440 120.164,262.000 119.692 C 261.560 119.220,261.200 118.556,261.200 118.217 C 261.200 117.878,261.020 117.600,260.800 117.600 C 260.580 117.600,260.400 117.240,260.400 116.800 C 260.400 116.360,260.220 116.000,260.000 116.000 C 259.780 116.000,259.600 115.730,259.600 115.400 C 259.600 115.070,259.420 114.800,259.200 114.800 C 258.980 114.800,258.800 114.530,258.800 114.200 C 258.800 113.870,258.620 113.600,258.400 113.600 C 258.180 113.600,258.000 113.353,258.000 113.050 C 258.000 112.394,255.978 108.657,255.520 108.467 C 255.344 108.393,255.200 108.003,255.200 107.600 C 255.200 107.197,255.065 106.807,254.900 106.733 C 254.524 106.566,253.225 104.436,252.929 103.500 C 252.807 103.115,252.548 102.800,252.353 102.800 C 252.159 102.800,252.000 102.440,252.000 102.000 C 252.000 101.560,251.820 101.200,251.600 101.200 C 251.380 101.200,251.200 100.964,251.200 100.675 C 251.200 100.387,250.840 99.764,250.400 99.292 C 249.960 98.820,249.600 98.156,249.600 97.817 C 249.600 97.478,249.464 97.200,249.298 97.200 C 249.131 97.200,248.736 96.615,248.420 95.900 C 248.103 95.185,247.520 94.251,247.122 93.825 C 246.725 93.398,246.400 92.813,246.400 92.525 C 246.400 92.236,246.220 92.000,246.000 92.000 C 245.780 92.000,245.600 91.640,245.600 91.200 C 245.600 90.760,245.420 90.400,245.200 90.400 C 244.980 90.400,244.800 90.164,244.800 89.875 C 244.800 89.587,244.440 88.964,244.000 88.492 C 243.560 88.020,243.200 87.356,243.200 87.017 C 243.200 86.678,243.020 86.400,242.800 86.400 C 242.580 86.400,242.400 86.055,242.400 85.633 C 242.400 85.212,242.252 84.807,242.071 84.733 C 241.774 84.613,241.134 83.502,237.966 77.600 C 237.435 76.610,236.787 75.574,236.526 75.298 C 236.266 75.021,235.938 74.436,235.799 73.998 C 235.660 73.559,235.378 73.200,235.173 73.200 C 234.968 73.200,234.800 72.840,234.800 72.400 C 234.800 71.960,234.620 71.600,234.400 71.600 C 234.180 71.600,234.000 71.322,234.000 70.983 C 234.000 70.644,233.640 69.980,233.200 69.508 C 232.760 69.036,232.400 68.413,232.400 68.125 C 232.400 67.836,232.220 67.600,232.000 67.600 C 231.780 67.600,231.600 67.240,231.600 66.800 C 231.600 66.360,231.441 66.000,231.247 66.000 C 231.052 66.000,230.793 65.685,230.671 65.300 C 230.454 64.613,229.195 62.394,228.799 62.000 C 228.689 61.890,228.330 61.260,228.002 60.600 C 227.674 59.940,227.089 59.109,226.703 58.753 C 226.316 58.397,226.000 57.812,226.000 57.453 C 226.000 57.094,225.820 56.800,225.600 56.800 C 225.380 56.800,225.200 56.526,225.200 56.192 C 225.200 55.858,224.788 54.913,224.284 54.092 C 223.781 53.271,222.926 51.745,222.385 50.700 C 221.844 49.655,221.266 48.800,221.101 48.800 C 220.935 48.800,220.800 48.440,220.800 48.000 C 220.800 47.560,220.620 47.200,220.400 47.200 C 220.180 47.200,220.000 47.007,220.000 46.772 C 220.000 46.537,219.460 45.559,218.800 44.600 C 218.140 43.641,217.600 42.663,217.600 42.428 C 217.600 42.193,217.420 42.000,217.200 42.000 C 216.980 42.000,216.800 41.640,216.800 41.200 C 216.800 40.760,216.620 40.400,216.400 40.400 C 216.180 40.400,216.000 40.164,216.000 39.875 C 216.000 39.587,215.640 38.964,215.200 38.492 C 214.760 38.020,214.400 37.356,214.400 37.017 C 214.400 36.678,214.220 36.400,214.000 36.400 C 213.780 36.400,213.600 36.040,213.600 35.600 C 213.600 35.160,213.420 34.800,213.200 34.800 C 212.980 34.800,212.800 34.530,212.800 34.200 C 212.800 33.870,212.620 33.600,212.400 33.600 C 212.180 33.600,212.000 33.330,212.000 33.000 C 212.000 32.670,211.820 32.400,211.600 32.400 C 211.380 32.400,211.200 32.040,211.200 31.600 C 211.200 31.160,211.020 30.800,210.800 30.800 C 210.580 30.800,210.400 30.567,210.400 30.283 C 210.400 28.948,205.587 24.800,204.038 24.800 C 203.603 24.800,203.136 24.620,203.000 24.400 C 202.864 24.180,201.514 24.000,200.000 24.000 C 198.486 24.000,197.136 24.180,197.000 24.400 M204.779 66.516 C 207.077 70.522,210.785 76.950,213.020 80.800 C 215.254 84.650,219.741 92.390,222.990 98.000 C 226.239 103.610,229.213 108.740,229.599 109.400 C 230.384 110.742,232.797 114.902,242.592 131.800 C 246.290 138.180,251.926 147.900,255.116 153.400 C 258.305 158.900,262.891 166.820,265.306 171.000 C 267.721 175.180,270.012 179.140,270.398 179.800 C 270.784 180.460,273.341 184.870,276.082 189.600 C 278.822 194.330,283.731 202.790,286.991 208.400 C 290.251 214.010,294.846 221.930,297.201 226.000 C 299.557 230.070,303.787 237.360,306.601 242.200 C 309.416 247.040,313.642 254.330,315.992 258.400 C 318.342 262.470,322.932 270.390,326.192 276.000 C 329.452 281.610,335.088 291.330,338.716 297.600 C 342.343 303.870,346.879 311.700,348.796 315.000 C 355.883 327.204,364.203 341.547,367.088 346.535 C 368.722 349.360,369.961 351.925,369.842 352.235 C 369.656 352.720,345.703 352.800,200.000 352.800 C 54.297 352.800,30.344 352.720,30.158 352.235 C 30.039 351.925,31.278 349.360,32.912 346.535 C 36.501 340.330,46.080 323.813,52.127 313.400 C 54.555 309.220,59.093 301.390,62.211 296.000 C 65.329 290.610,70.547 281.610,73.808 276.000 C 77.068 270.390,81.658 262.470,84.008 258.400 C 86.358 254.330,90.584 247.040,93.399 242.200 C 96.213 237.360,100.443 230.070,102.799 226.000 C 105.154 221.930,109.749 214.010,113.009 208.400 C 116.269 202.790,121.176 194.330,123.914 189.600 C 126.652 184.870,129.209 180.460,129.598 179.800 C 129.986 179.140,132.279 175.180,134.694 171.000 C 137.109 166.820,141.695 158.900,144.886 153.400 C 148.077 147.900,153.346 138.810,156.595 133.200 C 159.844 127.590,164.436 119.670,166.798 115.600 C 169.160 111.530,173.753 103.610,177.005 98.000 C 180.257 92.390,184.746 84.650,186.980 80.800 C 189.215 76.950,192.923 70.522,195.221 66.516 C 197.717 62.165,199.642 59.232,200.000 59.232 C 200.358 59.232,202.283 62.165,204.779 66.516 M156.529 169.411 C 145.844 172.290,141.041 182.536,140.691 203.195 L 140.600 208.600 142.800 208.600 L 145.000 208.600 145.266 206.186 C 146.906 191.325,158.511 188.095,169.253 199.510 C 180.881 211.866,196.576 247.925,199.629 269.298 C 200.365 274.455,199.856 276.522,194.579 289.800 C 188.604 304.836,185.587 323.936,187.648 333.680 C 191.262 350.761,209.615 349.253,212.006 331.679 C 213.033 324.126,210.942 299.080,208.606 290.980 C 207.669 287.730,206.000 277.614,206.003 275.210 C 206.009 271.937,208.143 267.906,219.669 249.400 C 250.888 199.274,257.626 184.058,252.774 174.641 C 248.164 165.693,235.790 167.452,230.811 177.763 C 229.524 180.430,228.741 183.857,227.606 191.800 C 226.006 202.992,225.504 205.915,224.346 210.768 C 222.017 220.530,218.005 233.167,214.812 240.800 C 214.398 241.790,213.398 244.220,212.590 246.200 C 211.783 248.180,209.898 252.590,208.402 256.000 C 206.906 259.410,205.404 262.873,205.063 263.696 C 204.444 265.193,203.200 265.481,203.200 264.128 C 203.200 263.806,202.854 262.070,202.431 260.271 C 202.008 258.472,201.198 254.975,200.631 252.500 C 193.273 220.378,189.993 209.285,183.261 193.754 C 175.251 175.275,166.007 166.857,156.529 169.411 " stroke="none" fill="#050404" fill-rule="evenodd"></path><path id="path1" d="M195.221 66.516 C 192.923 70.522,189.215 76.950,186.980 80.800 C 184.746 84.650,180.257 92.390,177.005 98.000 C 173.753 103.610,169.160 111.530,166.798 115.600 C 164.436 119.670,159.844 127.590,156.595 133.200 C 153.346 138.810,148.077 147.900,144.886 153.400 C 141.695 158.900,137.109 166.820,134.694 171.000 C 132.279 175.180,129.986 179.140,129.598 179.800 C 129.209 180.460,126.652 184.870,123.914 189.600 C 121.176 194.330,116.269 202.790,113.009 208.400 C 109.749 214.010,105.154 221.930,102.799 226.000 C 100.443 230.070,96.213 237.360,93.399 242.200 C 90.584 247.040,86.358 254.330,84.008 258.400 C 81.658 262.470,77.068 270.390,73.808 276.000 C 70.547 281.610,65.329 290.610,62.211 296.000 C 59.093 301.390,54.555 309.220,52.127 313.400 C 46.080 323.813,36.501 340.330,32.912 346.535 C 31.278 349.360,30.039 351.925,30.158 352.235 C 30.344 352.720,54.297 352.800,200.000 352.800 C 345.703 352.800,369.656 352.720,369.842 352.235 C 369.961 351.925,368.722 349.360,367.088 346.535 C 364.203 341.547,355.883 327.204,348.796 315.000 C 346.879 311.700,342.343 303.870,338.716 297.600 C 335.088 291.330,329.452 281.610,326.192 276.000 C 322.932 270.390,318.342 262.470,315.992 258.400 C 313.642 254.330,309.416 247.040,306.601 242.200 C 303.787 237.360,299.557 230.070,297.201 226.000 C 294.846 221.930,290.251 214.010,286.991 208.400 C 283.731 202.790,278.822 194.330,276.082 189.600 C 273.341 184.870,270.784 180.460,270.398 179.800 C 270.012 179.140,267.721 175.180,265.306 171.000 C 262.891 166.820,258.305 158.900,255.116 153.400 C 251.926 147.900,246.290 138.180,242.592 131.800 C 232.797 114.902,230.384 110.742,229.599 109.400 C 229.213 108.740,226.239 103.610,222.990 98.000 C 219.741 92.390,215.254 84.650,213.020 80.800 C 210.785 76.950,207.077 70.522,204.779 66.516 C 202.283 62.165,200.358 59.232,200.000 59.232 C 199.642 59.232,197.717 62.165,195.221 66.516 M162.200 169.344 C 170.660 171.604,176.688 178.589,183.261 193.754 C 189.993 209.285,193.273 220.378,200.631 252.500 C 201.198 254.975,202.008 258.472,202.431 260.271 C 202.854 262.070,203.200 263.806,203.200 264.128 C 203.200 265.481,204.444 265.193,205.063 263.696 C 205.404 262.873,206.906 259.410,208.402 256.000 C 209.898 252.590,211.783 248.180,212.590 246.200 C 213.398 244.220,214.398 241.790,214.812 240.800 C 218.005 233.167,222.017 220.530,224.346 210.768 C 225.504 205.915,226.006 202.992,227.606 191.800 C 228.741 183.857,229.524 180.430,230.811 177.763 C 235.790 167.452,248.164 165.693,252.774 174.641 C 257.626 184.058,250.888 199.274,219.669 249.400 C 208.143 267.906,206.009 271.937,206.003 275.210 C 206.000 277.614,207.669 287.730,208.606 290.980 C 210.942 299.080,213.033 324.126,212.006 331.679 C 209.615 349.253,191.262 350.761,187.648 333.680 C 185.587 323.936,188.604 304.836,194.579 289.800 C 199.856 276.522,200.365 274.455,199.629 269.298 C 196.576 247.925,180.881 211.866,169.253 199.510 C 158.511 188.095,146.906 191.325,145.266 206.186 L 145.000 208.600 142.800 208.600 L 140.600 208.600 140.691 203.195 C 140.846 194.032,142.651 183.642,144.921 178.846 C 148.141 172.044,156.042 167.699,162.200 169.344 " stroke="none" fill="#f3bb0c" fill-rule="evenodd"></path></g></svg>